# Blender v2.77 (sub 0) OBJ File: 'meseconductors_garden_lamp.blend'
# www.blender.org
o Circle.001
v -0.018530 -0.478468 0.003495
v -0.018530 -0.391587 0.003495
v -0.018530 -0.478468 -0.058793
v -0.018530 -0.391587 -0.058793
v 0.018530 -0.478468 0.003495
v 0.018530 -0.391587 0.003495
v 0.018530 -0.478468 -0.058793
v 0.018530 -0.391587 -0.058793
v 0.058563 -0.367270 -0.048372
v 0.058563 -0.350141 -0.035926
v 0.058563 -0.356684 -0.015790
v 0.058563 -0.377857 -0.015790
v 0.058563 -0.384399 -0.035927
v -0.059477 -0.367270 -0.048372
v -0.059477 -0.350141 -0.035926
v -0.059477 -0.356684 -0.015790
v -0.059477 -0.377857 -0.015790
v -0.059477 -0.384399 -0.035927
v 0.000000 -0.340063 -0.081209
v -0.034032 -0.349755 -0.073495
v -0.052140 -0.374295 -0.053964
v -0.045851 -0.402202 -0.031755
v -0.018108 -0.420416 -0.017258
v 0.018108 -0.420416 -0.017258
v 0.045851 -0.402202 -0.031755
v 0.052140 -0.374295 -0.053964
v 0.034032 -0.349755 -0.073495
v 0.000000 -0.250433 0.029862
v -0.034032 -0.260125 0.037575
v -0.052140 -0.284665 0.057106
v -0.045851 -0.312571 0.079316
v -0.018108 -0.330786 0.093813
v 0.018108 -0.330786 0.093813
v 0.045851 -0.312571 0.079316
v 0.052140 -0.284665 0.057106
v 0.034032 -0.260125 0.037575
v -0.000000 -0.185169 0.037158
v -0.063336 -0.203206 0.051513
v -0.097036 -0.248878 0.087862
v -0.085332 -0.300814 0.129196
v -0.033700 -0.334713 0.156175
v 0.033700 -0.334713 0.156175
v 0.085332 -0.300814 0.129196
v 0.097036 -0.248878 0.087862
v 0.063336 -0.203206 0.051513
v 0.000000 -0.374416 -0.085539
v -0.019377 -0.379935 -0.081147
v -0.029688 -0.393908 -0.070026
v -0.026107 -0.409798 -0.057380
v -0.010310 -0.420169 -0.049126
v 0.010310 -0.420169 -0.049126
v 0.026107 -0.409798 -0.057380
v 0.029688 -0.393908 -0.070026
v 0.019377 -0.379935 -0.081147
v -0.054345 -0.196757 0.072614
v -0.000353 -0.181381 0.060376
v -0.083073 -0.235691 0.103600
v -0.073096 -0.279965 0.138836
v -0.029081 -0.308862 0.161835
v 0.028376 -0.308862 0.161835
v 0.072390 -0.279965 0.138836
v 0.082367 -0.235691 0.103600
v 0.053639 -0.196757 0.072614
v -0.000000 -0.500000 -0.130839
v -0.051595 -0.500000 -0.117014
v -0.089365 -0.500000 -0.079244
v -0.103190 -0.500000 -0.027649
v -0.089365 -0.500000 0.023946
v -0.051595 -0.500000 0.061716
v -0.000000 -0.500000 0.075540
v 0.051595 -0.500000 0.061716
v 0.089365 -0.500000 0.023946
v 0.103190 -0.500000 -0.027649
v 0.089365 -0.500000 -0.079244
v 0.051595 -0.500000 -0.117014
v -0.000000 -0.476948 -0.130839
v -0.051595 -0.476948 -0.117014
v -0.089365 -0.476948 -0.079244
v -0.103190 -0.476948 -0.027649
v -0.089365 -0.476948 0.023946
v -0.051595 -0.476948 0.061716
v -0.000000 -0.476948 0.075540
v 0.051595 -0.476948 0.061716
v 0.089365 -0.476948 0.023946
v 0.103190 -0.476948 -0.027649
v 0.089365 -0.476948 -0.079244
v 0.051595 -0.476948 -0.117014
v -0.062089 -0.195509 0.063570
v -0.000000 -0.177827 0.049498
v -0.095126 -0.240282 0.099203
v -0.083653 -0.291195 0.139724
v -0.033037 -0.324427 0.166172
v 0.033037 -0.324427 0.166172
v 0.083653 -0.291195 0.139724
v 0.095126 -0.240282 0.099203
v 0.062089 -0.195509 0.063570
v -0.027275 -0.216256 0.099920
v -0.000353 -0.208589 0.093818
v -0.041600 -0.235670 0.115370
v -0.036625 -0.257746 0.132940
v -0.014678 -0.272155 0.144408
v 0.013972 -0.272155 0.144408
v 0.035919 -0.257746 0.132940
v 0.040894 -0.235670 0.115370
v 0.026569 -0.216256 0.099920
v -0.054345 -0.198421 0.070524
v -0.000353 -0.183044 0.058287
v -0.083073 -0.237354 0.101510
v -0.073096 -0.281628 0.136746
v -0.029081 -0.310526 0.159745
v 0.028376 -0.310526 0.159745
v 0.072390 -0.281628 0.136746
v 0.082367 -0.237354 0.101510
v 0.053639 -0.198421 0.070524
vt 0.4974 0.9690
vt 0.3481 0.9690
vt 0.3481 0.7608
vt 0.4974 0.7608
vt 0.2593 0.9690
vt 0.2593 0.7608
vt 0.1100 0.9690
vt 0.1100 0.7608
vt 0.0212 0.9690
vt 0.0212 0.7608
vt 0.5326 0.1887
vt 0.4620 0.1887
vt 0.4401 0.1214
vt 0.4973 0.0799
vt 0.5545 0.1214
vt 0.3306 0.1979
vt 0.2734 0.1563
vt 0.2952 0.0891
vt 0.3659 0.0891
vt 0.3877 0.1563
vt 0.3517 0.2402
vt 0.3906 0.2261
vt 0.4295 0.2402
vt 0.4502 0.2761
vt 0.4430 0.3168
vt 0.4113 0.3435
vt 0.3699 0.3435
vt 0.3382 0.3168
vt 0.3310 0.2761
vt 0.4303 0.1577
vt 0.4303 0.2848
vt 0.4303 0.2848
vt 0.4303 0.1577
vt 0.0706 0.9249
vt 0.0214 0.8397
vt 0.0214 0.7412
vt 0.0706 0.6560
vt 0.1558 0.6068
vt 0.2542 0.6068
vt 0.3395 0.6560
vt 0.3887 0.7412
vt 0.3887 0.8397
vt 0.3395 0.9249
vt 0.2542 0.9741
vt 0.1558 0.9741
vt 0.3803 0.7872
vt 0.4284 0.7872
vt 0.4701 0.8113
vt 0.4941 0.8529
vt 0.4941 0.9010
vt 0.4701 0.9426
vt 0.4284 0.9667
vt 0.3803 0.9667
vt 0.3387 0.9426
vt 0.3147 0.9010
vt 0.3147 0.8529
vt 0.3387 0.8113
vt 0.1135 0.3407
vt 0.2235 0.4042
vt 0.2204 0.4217
vt 0.0998 0.3521
vt 0.0700 0.2213
vt 0.0522 0.2213
vt 0.1135 0.1019
vt 0.0998 0.0904
vt 0.2235 0.0384
vt 0.2204 0.0208
vt 0.3486 0.0604
vt 0.3576 0.0450
vt 0.4471 0.1516
vt 0.4471 0.2909
vt 0.3486 0.3821
vt 0.3576 0.3976
vt 0.2235 0.0384
vt 0.1135 0.1019
vt 0.1135 0.3407
vt 0.2235 0.4042
vt 0.3486 0.3821
vt 0.3486 0.0604
vt 0.0700 0.2213
vt 0.6396 0.0673
vt 0.6881 0.0673
vt 0.6881 0.3377
vt 0.6396 0.3377
vt 0.4941 0.0673
vt 0.5426 0.0673
vt 0.5426 0.3377
vt 0.4941 0.3377
vt 0.5911 0.0673
vt 0.5911 0.3377
vt 0.7366 0.0673
vt 0.7366 0.3377
vt 0.0739 0.0087
vt 0.0739 0.2784
vt 0.0074 0.2784
vt 0.0074 0.0087
vt 0.3398 0.0087
vt 0.3398 0.2784
vt 0.2733 0.2784
vt 0.2733 0.0087
vt 0.1404 0.0087
vt 0.1404 0.2784
vt 0.5393 0.0087
vt 0.5393 0.2784
vt 0.4728 0.2784
vt 0.4728 0.0087
vt 0.4063 0.0087
vt 0.4063 0.2784
vt 0.2068 0.0087
vt 0.2068 0.2784
vt 0.6058 0.0087
vt 0.6058 0.2784
vt 0.5393 0.4012
vt 0.4728 0.4012
vt 0.4063 0.4012
vt 0.3398 0.4012
vt 0.2068 0.4012
vt 0.1404 0.4012
vt 0.6058 0.4012
vt 0.2733 0.4012
vt 0.0739 0.4012
vt 0.0074 0.4012
vt 0.9372 0.3264
vt 0.9372 0.4043
vt 0.8706 0.4043
vt 0.8706 0.3264
vt 0.6708 0.3264
vt 0.6708 0.4043
vt 0.6042 0.4043
vt 0.6042 0.3264
vt 0.8040 0.4043
vt 0.8040 0.3264
vt 0.4710 0.3264
vt 0.4710 0.4043
vt 0.4044 0.4043
vt 0.4044 0.3264
vt 0.5376 0.4043
vt 0.5376 0.3264
vt 0.7374 0.4043
vt 0.7374 0.3264
vt 0.3378 0.4043
vt 0.3378 0.3264
vt 0.3398 0.4283
vt 0.2733 0.4283
vt 0.1404 0.4283
vt 0.0739 0.4283
vt 0.5393 0.4283
vt 0.4728 0.4283
vt 0.4063 0.4283
vt 0.2068 0.4283
vt 0.6058 0.4283
vt 0.0074 0.4283
vt 0.5638 0.5006
vt 0.5638 0.4676
vt 0.6401 0.4676
vt 0.6401 0.5006
vt 0.4112 0.5006
vt 0.4112 0.4676
vt 0.4875 0.4676
vt 0.4875 0.5006
vt 0.7927 0.5006
vt 0.7927 0.4676
vt 0.8689 0.4676
vt 0.8689 0.5006
vt 0.1060 0.5006
vt 0.1060 0.4676
vt 0.1823 0.4676
vt 0.1823 0.5006
vt 0.3349 0.5006
vt 0.3349 0.4676
vt 0.7164 0.5006
vt 0.7164 0.4676
vt 0.0297 0.5006
vt 0.0297 0.4676
vt 0.2586 0.5006
vt 0.2586 0.4676
vt 0.9452 0.4676
vt 0.9452 0.5006
vt 0.7003 0.8246
vt 0.6782 0.7638
vt 0.7003 0.7031
vt 0.7563 0.6708
vt 0.8200 0.6820
vt 0.8615 0.7315
vt 0.8615 0.7962
vt 0.8200 0.8457
vt 0.7563 0.8569
vt 0.7320 0.9893
vt 0.5964 0.9110
vt 0.5429 0.7638
vt 0.5964 0.6167
vt 0.7320 0.5384
vt 0.8862 0.5656
vt 0.9869 0.6855
vt 0.9869 0.8421
vt 0.8862 0.9621
vn -1.0000 0.0000 0.0000
vn 0.0000 0.0000 -1.0000
vn 1.0000 0.0000 0.0000
vn 0.0000 0.0000 1.0000
vn -0.0000 -0.6227 -0.7824
vn -0.9848 0.1359 -0.1081
vn 0.0000 1.0000 0.0000
vn 0.0000 -1.0000 -0.0000
vn -0.1982 0.9336 0.2986
vn -0.4612 0.7354 0.4965
vn -0.4572 0.4885 0.7432
vn -0.2647 0.3207 0.9095
vn 0.0000 0.2684 0.9633
vn 0.2577 0.3302 0.9081
vn 0.4372 0.4977 0.7491
vn 0.4417 0.7352 0.5142
vn 0.1947 0.9305 0.3103
vn 0.6428 0.5994 -0.4770
vn 0.3420 -0.7353 0.5852
vn -0.8660 -0.3912 0.3114
vn 0.0000 0.7824 -0.6227
vn 0.8660 -0.3912 0.3114
vn -0.3420 -0.7353 0.5852
vn -0.6428 0.5994 -0.4770
vn 0.9848 0.1359 -0.1081
vn 0.5957 0.0000 -0.8032
vn 0.5957 -0.7639 -0.2482
vn -0.5957 -0.7639 -0.2482
vn -0.5957 0.0000 -0.8032
vn 0.5957 -0.4721 0.6498
vn 0.5957 0.4721 0.6498
vn -0.5957 0.4721 0.6498
vn -0.5957 -0.4721 0.6498
vn 0.5957 0.7639 -0.2482
vn -0.5957 0.7639 -0.2482
vn -0.8180 -0.5742 0.0337
vn -0.7906 -0.6113 -0.0336
vn -0.8972 -0.1340 -0.4209
vn -0.9252 -0.0837 -0.3702
vn 0.9252 -0.0837 -0.3702
vn 0.8972 -0.1340 -0.4209
vn 0.7906 -0.6113 -0.0336
vn 0.8180 -0.5742 0.0337
vn -0.3242 -0.8972 0.2999
vn -0.3127 -0.9240 0.2201
vn -0.6011 0.3434 -0.7216
vn -0.5845 0.2841 -0.7600
vn 0.0000 0.4487 -0.8936
vn 0.0000 0.5112 -0.8595
vn 0.6011 0.3434 -0.7216
vn 0.5845 0.2841 -0.7600
vn 0.3242 -0.8972 0.2999
vn 0.3127 -0.9240 0.2201
vn -0.6141 0.3908 -0.6857
vn 0.0000 0.5647 -0.8253
vn 0.6141 0.3908 -0.6857
vn 0.9421 -0.0502 -0.3314
vn 0.3280 -0.8825 0.3370
vn -0.3280 -0.8825 0.3370
vn -0.9421 -0.0502 -0.3314
vn 0.8298 -0.5533 0.0726
vn -0.8298 -0.5533 0.0726
vn -0.4624 -0.4905 -0.7386
vn -0.4122 -0.7372 -0.5353
vn 0.4122 -0.7372 -0.5353
vn 0.4624 -0.4905 -0.7386
vn -0.1642 -0.9019 -0.3995
vn 0.0000 -0.1969 -0.9804
vn -0.2981 -0.2790 -0.9128
vn 0.2981 -0.2790 -0.9128
vn 0.1642 -0.9019 -0.3995
vn 0.8319 0.4428 0.3345
vn 0.7166 0.0182 0.6972
vn -0.2799 -0.2567 0.9251
vn -0.7191 0.0127 0.6948
vn -0.5599 0.8284 -0.0146
vn 0.0014 0.9882 -0.1531
vn 0.5582 0.8296 -0.0061
vn 0.2807 -0.2543 0.9254
vn -0.8371 0.4380 0.3277
vn 0.0000 -0.6532 -0.7571
vn 0.0000 0.6532 -0.7571
vn 0.3786 0.6532 -0.6557
vn 0.3786 -0.6532 -0.6557
vn -0.6557 -0.6532 -0.3786
vn -0.6557 0.6532 -0.3786
vn -0.3786 0.6532 -0.6557
vn -0.3786 -0.6532 -0.6557
vn 0.7571 -0.6532 0.0000
vn 0.7571 0.6532 0.0000
vn 0.6557 0.6532 0.3786
vn 0.6557 -0.6532 0.3786
vn 0.0000 -0.6532 0.7571
vn 0.0000 0.6532 0.7571
vn -0.3786 0.6532 0.6557
vn -0.3786 -0.6532 0.6557
vn -0.7571 -0.6532 0.0000
vn -0.7571 0.6532 0.0000
vn 0.6557 -0.6532 -0.3786
vn 0.6557 0.6532 -0.3786
vn 0.3786 -0.6532 0.6557
vn 0.3786 0.6532 0.6557
vn -0.6557 -0.6532 0.3786
vn -0.6557 0.6532 0.3786
vn -0.1072 0.7140 0.6919
vn -0.1643 0.6366 0.7534
vn -0.1444 0.5487 0.8234
vn -0.0570 0.4913 0.8691
vn 0.0570 0.4913 0.8691
vn 0.1444 0.5487 0.8234
vn 0.1643 0.6366 0.7534
vn 0.1072 0.7140 0.6919
vn 0.0000 0.7445 0.6676
vn 0.0000 -0.0953 0.9954
vn 0.4464 0.0318 0.8943
vn 0.6839 0.3537 0.6381
vn 0.6014 0.7197 0.3468
vn 0.2375 0.9586 0.1566
vn -0.2375 0.9586 0.1566
vn -0.6014 0.7197 0.3468
vn -0.6839 0.3537 0.6381
vn -0.4464 0.0318 0.8943
s off
f 2/1/1 4/2/1 3/3/1 1/4/1
f 4/2/2 8/5/2 7/6/2 3/3/2
f 8/5/3 6/7/3 5/8/3 7/6/3
f 6/7/4 2/9/4 1/10/4 5/8/4
f 10/11/3 11/12/3 12/13/3 13/14/3 9/15/3
f 15/16/1 14/17/1 18/18/1 17/19/1 16/20/1
f 47/21/5 46/22/5 54/23/5 53/24/5 52/25/5 51/26/5 50/27/5 49/28/5 48/29/5
f 61/30/6 62/31/6 113/32/6 112/33/6
f 77/34/7 78/35/7 79/36/7 80/37/7 81/38/7 82/39/7 83/40/7 84/41/7 85/42/7 86/43/7 87/44/7 76/45/7
f 65/46/8 64/47/8 75/48/8 74/49/8 73/50/8 72/51/8 71/52/8 70/53/8 69/54/8 68/55/8 67/56/8 66/57/8
f 55/58/9 56/59/9 89/60/9 88/61/9
f 57/62/10 55/58/10 88/61/10 90/63/10
f 58/64/11 57/62/11 90/63/11 91/65/11
f 59/66/12 58/64/12 91/65/12 92/67/12
f 60/68/13 59/66/13 92/67/13 93/69/13
f 61/30/14 60/68/14 93/69/14 94/70/14
f 62/31/15 61/30/15 94/70/15 95/71/15
f 63/72/16 62/31/16 95/71/16 96/73/16
f 56/59/17 63/72/17 96/73/17 89/60/17
f 58/64/18 59/66/18 110/74/18 109/75/18
f 56/59/19 55/58/19 106/76/19 107/77/19
f 62/31/20 63/72/20 114/78/20 113/32/20
f 59/66/21 60/68/21 111/79/21 110/74/21
f 55/58/22 57/62/22 108/80/22 106/76/22
f 63/72/23 56/59/23 107/77/23 114/78/23
f 60/68/24 61/30/24 112/33/24 111/79/24
f 57/62/25 58/64/25 109/75/25 108/80/25
s 1
f 9/81/26 13/82/27 18/83/28 14/84/29
f 12/85/30 11/86/31 16/87/32 17/88/33
f 10/89/34 9/81/26 14/84/29 15/90/35
f 13/82/27 12/91/30 17/92/33 18/83/28
f 11/86/31 10/89/34 15/90/35 16/87/32
f 22/93/36 31/94/37 30/95/38 21/96/39
f 26/97/40 35/98/41 34/99/42 25/100/43
f 23/101/44 32/102/45 31/94/37 22/93/36
f 20/103/46 29/104/47 28/105/48 19/106/49
f 27/107/50 36/108/51 35/98/41 26/97/40
f 24/109/52 33/110/53 32/102/45 23/101/44
f 21/111/39 30/112/38 29/104/47 20/103/46
f 19/106/49 28/105/48 36/108/51 27/107/50
f 25/100/43 34/99/42 33/110/53 24/109/52
f 29/104/47 38/113/54 37/114/55 28/105/48
f 36/108/51 45/115/56 44/116/57 35/98/41
f 33/110/53 42/117/58 41/118/59 32/102/45
f 30/112/38 39/119/60 38/113/54 29/104/47
f 28/105/48 37/114/55 45/115/56 36/108/51
f 34/99/42 43/120/61 42/117/58 33/110/53
f 31/94/37 40/121/62 39/122/60 30/95/38
f 35/98/41 44/116/57 43/120/61 34/99/42
f 32/102/45 41/118/59 40/121/62 31/94/37
f 21/123/39 48/124/63 49/125/64 22/126/36
f 25/127/43 52/128/65 53/129/66 26/130/40
f 22/126/36 49/125/64 50/131/67 23/132/44
f 19/133/49 46/134/68 47/135/69 20/136/46
f 26/130/40 53/129/66 54/137/70 27/138/50
f 23/132/44 50/131/67 51/139/71 24/140/52
f 20/136/46 47/135/69 48/141/63 21/142/39
f 27/138/50 54/137/70 46/134/68 19/133/49
f 24/140/52 51/139/71 52/128/65 25/127/43
f 44/116/57 95/143/72 94/144/73 43/120/61
f 41/118/59 92/145/74 91/146/75 40/121/62
f 38/113/54 88/147/76 89/148/77 37/114/55
f 45/115/56 96/149/78 95/143/72 44/116/57
f 42/117/58 93/150/79 92/145/74 41/118/59
f 39/119/60 90/151/80 88/147/76 38/113/54
f 37/114/55 89/148/77 96/149/78 45/115/56
f 43/120/61 94/144/73 93/150/79 42/117/58
f 40/121/62 91/146/75 90/152/80 39/122/60
f 64/153/81 76/154/82 87/155/83 75/156/84
f 66/157/85 78/158/86 77/159/87 65/160/88
f 73/161/89 85/162/90 84/163/91 72/164/92
f 70/165/93 82/166/94 81/167/95 69/168/96
f 67/169/97 79/170/98 78/158/86 66/157/85
f 74/171/99 86/172/100 85/162/90 73/161/89
f 71/173/101 83/174/102 82/166/94 70/165/93
f 68/175/103 80/176/104 79/170/98 67/169/97
f 75/156/84 87/155/83 86/172/100 74/171/99
f 65/160/88 77/159/87 76/154/82 64/153/81
f 72/164/92 84/163/91 83/177/102 71/178/101
f 69/168/96 81/167/95 80/176/104 68/175/103
f 97/179/105 99/180/106 100/181/107 101/182/108 102/183/109 103/184/110 104/185/111 105/186/112 98/187/113
f 97/179/105 98/187/113 107/188/114 106/189/115
f 99/180/106 97/179/105 106/189/115 108/190/116
f 100/181/107 99/180/106 108/190/116 109/191/117
f 101/182/108 100/181/107 109/191/117 110/192/118
f 102/183/109 101/182/108 110/192/118 111/193/119
f 103/184/110 102/183/109 111/193/119 112/194/120
f 104/185/111 103/184/110 112/194/120 113/195/121
f 105/186/112 104/185/111 113/195/121 114/196/122
f 98/187/113 105/186/112 114/196/122 107/188/114
