# Blender v2.77 (sub 0) OBJ File: 'lamp1.blend'
# www.blender.org
o mese_light_Cube.001
v -0.000000 -0.437963 -0.313969
v 0.120151 -0.437963 -0.290070
v 0.120151 -0.437963 0.290070
v -0.000000 -0.437963 0.313969
v -0.222010 -0.437963 -0.222010
v -0.120151 -0.437963 -0.290070
v 0.222010 -0.437963 0.222011
v -0.290070 -0.437963 -0.120151
v 0.290070 -0.437963 0.120151
v -0.313969 -0.437963 -0.000000
v 0.313969 -0.437963 -0.000000
v -0.290070 -0.437963 0.120151
v 0.290070 -0.437963 -0.120151
v -0.222010 -0.437963 0.222010
v 0.222010 -0.437963 -0.222011
v -0.120151 -0.437963 0.290070
v 0.203934 -0.407770 -0.203935
v 0.266453 -0.407770 -0.110369
v -0.110369 -0.407770 0.266453
v -0.203934 -0.407770 0.203934
v 0.110368 -0.407770 -0.266453
v -0.000000 -0.407770 0.288407
v -0.110368 -0.407770 -0.266453
v -0.000000 -0.407770 -0.288408
v 0.110368 -0.407770 0.266453
v -0.203934 -0.407770 -0.203934
v 0.203934 -0.407770 0.203935
v -0.266453 -0.407770 -0.110368
v 0.266453 -0.407770 0.110369
v -0.288407 -0.407770 -0.000000
v 0.288407 -0.407770 -0.000000
v -0.266453 -0.407770 0.110368
v -0.000000 -0.351622 -0.000000
v 0.146739 -0.369136 0.060781
v 0.158829 -0.369136 -0.000000
v -0.060781 -0.369136 0.146739
v -0.000000 -0.369136 0.158829
v 0.146739 -0.369136 -0.060781
v 0.060781 -0.369136 0.146739
v -0.112309 -0.369136 -0.112309
v -0.060781 -0.369136 -0.146739
v -0.000000 -0.369136 -0.158829
v -0.112309 -0.369136 0.112309
v 0.060781 -0.369136 -0.146739
v 0.112309 -0.369136 -0.112309
v -0.146739 -0.369136 0.060781
v -0.158829 -0.369136 -0.000000
v 0.112309 -0.369136 0.112309
v -0.146739 -0.369136 -0.060781
v 0.218973 -0.500000 0.218973
v 0.242621 -0.494438 0.242622
v 0.131306 -0.494438 0.317001
v 0.118507 -0.500000 0.286101
v -0.286101 -0.500000 -0.118507
v -0.317001 -0.494438 -0.131306
v -0.242622 -0.494438 -0.242622
v -0.218973 -0.500000 -0.218973
v 0.286101 -0.500000 0.118507
v 0.317001 -0.494438 0.131306
v -0.309674 -0.500000 -0.000000
v -0.343119 -0.494438 -0.000000
v 0.309674 -0.500000 -0.000000
v 0.343119 -0.494438 -0.000000
v -0.286101 -0.500000 0.118507
v -0.317001 -0.494438 0.131306
v 0.286101 -0.500000 -0.118507
v 0.317001 -0.494438 -0.131306
v -0.218973 -0.500000 0.218973
v -0.242622 -0.494438 0.242621
v 0.218973 -0.500000 -0.218973
v 0.242621 -0.494438 -0.242622
v -0.118507 -0.500000 0.286101
v -0.131306 -0.494438 0.317001
v 0.118507 -0.500000 -0.286101
v 0.131306 -0.494438 -0.317001
v -0.000000 -0.500000 0.309674
v -0.000000 -0.494438 0.343119
v -0.118507 -0.500000 -0.286101
v -0.131306 -0.494438 -0.317001
v -0.000000 -0.494438 -0.343119
v -0.000000 -0.500000 -0.309674
v -0.000000 -0.436294 -0.310781
v 0.118931 -0.436294 -0.287124
v 0.118931 -0.436294 0.287124
v -0.000000 -0.436294 0.310781
v -0.219755 -0.436294 -0.219755
v -0.118931 -0.436294 -0.287124
v 0.219755 -0.436294 0.219756
v -0.287124 -0.436294 -0.118931
v 0.287124 -0.436294 0.118931
v -0.310781 -0.436294 -0.000000
v 0.310781 -0.436294 -0.000000
v -0.287124 -0.436294 0.118931
v 0.287124 -0.436294 -0.118931
v -0.219755 -0.436294 0.219755
v 0.219755 -0.436294 -0.219756
v -0.118931 -0.436294 0.287124
v -0.000000 -0.500000 -0.000000
v 0.131306 -0.441600 0.317001
v 0.131306 -0.441600 -0.317001
v -0.131306 -0.441600 -0.317001
v -0.242622 -0.441600 0.242621
v -0.343119 -0.441600 -0.000000
v 0.343119 -0.441600 -0.000000
v -0.242622 -0.441600 -0.242622
v 0.242621 -0.441600 0.242622
v 0.242621 -0.441600 -0.242622
v -0.317001 -0.441600 0.131306
v -0.000000 -0.441601 0.343119
v -0.317001 -0.441600 -0.131306
v -0.131306 -0.441600 0.317001
v -0.000000 -0.441600 -0.343119
v 0.317001 -0.441600 0.131306
v 0.317001 -0.441600 -0.131306
vt 0.4355 0.8550
vt 0.4141 0.8336
vt 0.4598 0.7651
vt 0.4879 0.7767
vt 0.1725 0.4613
vt 0.1841 0.4894
vt 0.1156 0.5351
vt 0.0942 0.5137
vt 0.3572 0.9073
vt 0.3456 0.8793
vt 0.2649 0.4430
vt 0.2649 0.4733
vt 0.1725 0.9073
vt 0.1841 0.8793
vt 0.2649 0.8954
vt 0.2649 0.9257
vt 0.3572 0.4613
vt 0.3456 0.4894
vt 0.0942 0.8550
vt 0.1156 0.8336
vt 0.4355 0.5137
vt 0.4141 0.5351
vt 0.0418 0.7767
vt 0.0699 0.7651
vt 0.4879 0.5920
vt 0.4598 0.6036
vt 0.0235 0.6843
vt 0.0538 0.6843
vt 0.5062 0.6843
vt 0.4759 0.6843
vt 0.0418 0.5920
vt 0.0699 0.6036
vt 0.3777 0.7311
vt 0.3870 0.6843
vt 0.2649 0.6843
vt 0.3777 0.6376
vt 0.2181 0.5715
vt 0.2649 0.5622
vt 0.3116 0.5715
vt 0.1785 0.7707
vt 0.2181 0.7971
vt 0.2649 0.8064
vt 0.1785 0.5980
vt 0.3116 0.7971
vt 0.3512 0.7707
vt 0.1520 0.6376
vt 0.1427 0.6843
vt 0.3512 0.5980
vt 0.1520 0.7311
vt 0.9100 0.2652
vt 0.9100 0.1967
vt 1.1283 0.1967
vt 1.1283 0.2652
vt -1.0553 0.2652
vt -1.0553 0.1967
vt -0.8369 0.1967
vt -0.8369 0.2652
vt 0.6916 0.2652
vt 0.6916 0.1967
vt -1.2737 0.2652
vt -1.2737 0.1967
vt 0.4733 0.2652
vt 0.4733 0.1967
vt 2.0018 0.2652
vt 2.0018 0.1967
vt 2.2202 0.1967
vt 2.2202 0.2652
vt 0.2549 0.2652
vt 0.2549 0.1967
vt 1.7834 0.2652
vt 1.7834 0.1967
vt 0.0365 0.2652
vt 0.0365 0.1967
vt 1.5651 0.2652
vt 1.5651 0.1967
vt -0.1818 0.2652
vt -0.1818 0.1967
vt 1.3467 0.2652
vt 1.3467 0.1967
vt -0.6186 0.2652
vt -0.6186 0.1967
vt -0.4002 0.1967
vt -0.4002 0.2652
vt -0.4002 0.1051
vt -0.4002 0.0136
vt -0.1818 0.0136
vt -0.1818 0.1051
vt 1.1283 0.1051
vt 1.1283 0.0136
vt 1.3467 0.0136
vt 1.3467 0.1051
vt -0.8369 0.1051
vt -0.8369 0.0136
vt -0.6186 0.0136
vt -0.6186 0.1051
vt 0.9100 0.1051
vt 0.9100 0.0136
vt -1.0553 0.1051
vt -1.0553 0.0136
vt 0.6916 0.1051
vt 0.6916 0.0136
vt -1.2737 0.1051
vt -1.2737 0.0136
vt 0.4733 0.1051
vt 0.4733 0.0136
vt 2.0018 0.1051
vt 2.0018 0.0136
vt 2.2202 0.0136
vt 2.2202 0.1051
vt 0.2549 0.1051
vt 0.2549 0.0136
vt 1.7834 0.1051
vt 1.7834 0.0136
vt 0.0365 0.1051
vt 0.0365 0.0136
vt 1.5651 0.1051
vt 1.5651 0.0136
vt 0.7526 0.5981
vt 0.7818 0.4517
vt 0.8109 0.5981
vt 0.7526 0.3053
vt 0.6988 0.3275
vt 0.8647 0.5758
vt 0.6576 0.3687
vt 0.9059 0.5346
vt 0.6353 0.4226
vt 0.9282 0.4808
vt 0.6353 0.4808
vt 0.9282 0.4226
vt 0.6576 0.5346
vt 0.9059 0.3687
vt 0.6988 0.5758
vt 0.8647 0.3275
vt 0.8109 0.3053
vn 0.5397 0.6462 -0.5397
vn 0.4039 0.8208 -0.4039
vn 0.5277 0.8208 -0.2186
vn 0.7051 0.6462 -0.2921
vn -0.2921 0.6462 0.7051
vn -0.2186 0.8208 0.5277
vn -0.4039 0.8208 0.4039
vn -0.5397 0.6462 0.5397
vn 0.2921 0.6462 -0.7051
vn 0.2186 0.8208 -0.5277
vn 0.0000 0.6462 0.7632
vn 0.0000 0.8208 0.5712
vn -0.2921 0.6462 -0.7051
vn -0.2186 0.8208 -0.5277
vn -0.0000 0.8208 -0.5712
vn 0.0000 0.6462 -0.7632
vn 0.2921 0.6462 0.7051
vn 0.2186 0.8208 0.5277
vn -0.5397 0.6462 -0.5397
vn -0.4039 0.8208 -0.4039
vn 0.5397 0.6462 0.5397
vn 0.4039 0.8208 0.4039
vn -0.7051 0.6462 -0.2921
vn -0.5277 0.8208 -0.2186
vn 0.7051 0.6462 0.2921
vn 0.5277 0.8208 0.2186
vn -0.7632 0.6462 -0.0000
vn -0.5712 0.8208 -0.0000
vn 0.7632 0.6462 0.0000
vn 0.5712 0.8208 0.0000
vn -0.7051 0.6462 0.2921
vn -0.5277 0.8208 0.2186
vn 0.1933 0.9779 -0.0801
vn 0.2092 0.9779 -0.0000
vn 0.0000 1.0000 -0.0000
vn 0.1933 0.9779 0.0801
vn -0.0801 0.9779 0.1933
vn 0.0000 0.9779 0.2092
vn 0.0801 0.9779 0.1933
vn -0.1479 0.9779 -0.1479
vn -0.0801 0.9779 -0.1933
vn -0.0000 0.9779 -0.2092
vn -0.1479 0.9779 0.1479
vn 0.0801 0.9779 -0.1933
vn 0.1479 0.9779 -0.1479
vn -0.1933 0.9779 0.0801
vn -0.2092 0.9779 0.0000
vn 0.1479 0.9779 0.1479
vn -0.1933 0.9779 -0.0801
vn 0.0654 -0.9957 0.0654
vn 0.1160 -0.9865 0.1160
vn 0.0628 -0.9865 0.1516
vn 0.0354 -0.9957 0.0855
vn -0.0855 -0.9957 -0.0354
vn -0.1516 -0.9865 -0.0628
vn -0.1160 -0.9865 -0.1160
vn -0.0654 -0.9957 -0.0654
vn 0.0855 -0.9957 0.0354
vn 0.1516 -0.9865 0.0628
vn -0.0925 -0.9957 0.0000
vn -0.1640 -0.9865 0.0000
vn 0.0925 -0.9957 0.0000
vn 0.1640 -0.9865 0.0000
vn -0.0855 -0.9957 0.0354
vn -0.1516 -0.9865 0.0628
vn 0.0855 -0.9957 -0.0354
vn 0.1516 -0.9865 -0.0628
vn -0.0654 -0.9957 0.0654
vn -0.1160 -0.9865 0.1160
vn 0.0654 -0.9957 -0.0654
vn 0.1160 -0.9865 -0.1160
vn -0.0354 -0.9957 0.0855
vn -0.0628 -0.9865 0.1516
vn 0.0354 -0.9957 -0.0855
vn 0.0628 -0.9865 -0.1516
vn 0.0000 -0.9957 0.0925
vn 0.0000 -0.9865 0.1640
vn -0.0354 -0.9957 -0.0855
vn -0.0628 -0.9865 -0.1516
vn 0.0000 -0.9865 -0.1640
vn 0.0000 -0.9957 -0.0925
vn 0.0000 0.9868 -0.1619
vn 0.0620 0.9868 -0.1496
vn 0.0620 0.9868 0.1496
vn 0.0000 0.9868 0.1619
vn -0.1145 0.9868 -0.1145
vn -0.0620 0.9868 -0.1496
vn 0.1145 0.9868 0.1145
vn -0.1496 0.9868 -0.0620
vn 0.1496 0.9868 0.0620
vn -0.1619 0.9868 0.0000
vn 0.1619 0.9868 0.0000
vn -0.1496 0.9868 0.0620
vn 0.1496 0.9868 -0.0620
vn -0.1145 0.9868 0.1145
vn 0.1145 0.9868 -0.1145
vn -0.0620 0.9868 0.1496
vn 0.0000 -1.0000 0.0000
vn -0.3827 0.0000 -0.9239
vn 0.0000 0.0000 -1.0000
vn 0.0000 0.0000 1.0000
vn -0.3827 0.0000 0.9239
vn 0.3827 0.0000 -0.9239
vn 0.7071 0.0000 -0.7071
vn -0.7071 0.0000 0.7071
vn 0.9239 0.0000 -0.3827
vn -0.9239 -0.0000 0.3827
vn 1.0000 0.0000 0.0000
vn -1.0000 -0.0000 0.0000
vn 0.9239 0.0000 0.3827
vn -0.9239 0.0000 -0.3827
vn 0.7071 0.0000 0.7071
vn -0.7071 0.0000 -0.7071
vn 0.3827 0.0000 0.9239
s 1
f 15/1/1 17/2/2 18/3/3 13/4/4
f 16/5/5 19/6/6 20/7/7 14/8/8
f 2/9/9 21/10/10 17/2/2 15/1/1
f 4/11/11 22/12/12 19/6/6 16/5/5
f 6/13/13 23/14/14 24/15/15 1/16/16
f 1/16/16 24/15/15 21/10/10 2/9/9
f 3/17/17 25/18/18 22/12/12 4/11/11
f 5/19/19 26/20/20 23/14/14 6/13/13
f 7/21/21 27/22/22 25/18/18 3/17/17
f 8/23/23 28/24/24 26/20/20 5/19/19
f 9/25/25 29/26/26 27/22/22 7/21/21
f 10/27/27 30/28/28 28/24/24 8/23/23
f 11/29/29 31/30/30 29/26/26 9/25/25
f 12/31/31 32/32/32 30/28/28 10/27/27
f 13/4/4 18/3/3 31/30/30 11/29/29
f 14/8/8 20/7/7 32/32/32 12/31/31
f 31/30/30 18/3/3 38/33/33 35/34/34
f 33/35/35 34/36/36 35/34/34
f 33/35/35 36/37/37 37/38/38
f 38/33/33 33/35/35 35/34/34
f 37/38/38 39/39/39 33/35/35
f 40/40/40 33/35/35 41/41/41
f 33/35/35 42/42/42 41/41/41
f 33/35/35 43/43/43 36/37/37
f 44/44/44 33/35/35 45/45/45
f 33/35/35 46/46/46 43/43/43
f 45/45/45 33/35/35 38/33/33
f 47/47/47 46/46/46 33/35/35
f 39/39/39 48/48/48 33/35/35
f 49/49/49 33/35/35 40/40/40
f 48/48/48 34/36/36 33/35/35
f 47/47/47 33/35/35 49/49/49
f 44/44/44 42/42/42 33/35/35
f 46/46/46 32/32/32 20/7/7 43/43/43
f 44/44/44 21/10/10 24/15/15 42/42/42
f 45/45/45 17/2/2 21/10/10 44/44/44
f 42/42/42 24/15/15 23/14/14 41/41/41
f 39/39/39 25/18/18 27/22/22 48/48/48
f 27/22/22 29/26/26 34/36/36 48/48/48
f 49/49/49 28/24/24 30/28/28 47/47/47
f 47/47/47 30/28/28 32/32/32 46/46/46
f 23/14/14 26/20/20 40/40/40 41/41/41
f 40/40/40 26/20/20 28/24/24 49/49/49
f 36/37/37 19/6/6 22/12/12 37/38/38
f 22/12/12 25/18/18 39/39/39 37/38/38
f 43/43/43 20/7/7 19/6/6 36/37/37
f 34/36/36 29/26/26 31/30/30 35/34/34
f 18/3/3 17/2/2 45/45/45 38/33/33
f 50/50/50 51/51/51 52/52/52 53/53/53
f 54/54/54 55/55/55 56/56/56 57/57/57
f 58/58/58 59/59/59 51/51/51 50/50/50
f 60/60/60 61/61/61 55/55/55 54/54/54
f 62/62/62 63/63/63 59/59/59 58/58/58
f 64/64/64 65/65/65 61/66/61 60/67/60
f 66/68/66 67/69/67 63/63/63 62/62/62
f 68/70/68 69/71/69 65/65/65 64/64/64
f 70/72/70 71/73/71 67/69/67 66/68/66
f 72/74/72 73/75/73 69/71/69 68/70/68
f 74/76/74 75/77/75 71/73/71 70/72/70
f 76/78/76 77/79/77 73/75/73 72/74/72
f 78/80/78 79/81/79 80/82/80 81/83/81
f 81/83/81 80/82/80 75/77/75 74/76/74
f 53/53/53 52/52/52 77/79/77 76/78/76
f 57/57/57 56/56/56 79/81/79 78/80/78
f 112/84/82 82/85/82 83/86/83 100/87/83
f 99/88/84 84/89/84 85/90/85 109/91/85
f 105/92/86 86/93/86 87/94/87 101/95/87
f 106/96/88 88/97/88 84/89/84 99/88/84
f 110/98/89 89/99/89 86/93/86 105/92/86
f 113/100/90 90/101/90 88/97/88 106/96/88
f 103/102/91 91/103/91 89/99/89 110/98/89
f 104/104/92 92/105/92 90/101/90 113/100/90
f 108/106/93 93/107/93 91/108/91 103/109/91
f 114/110/94 94/111/94 92/105/92 104/104/92
f 102/112/95 95/113/95 93/107/93 108/106/93
f 107/114/96 96/115/96 94/111/94 114/110/94
f 111/116/97 97/117/97 95/113/95 102/112/95
f 100/87/83 83/86/83 96/115/96 107/114/96
f 109/91/85 85/90/85 97/117/97 111/116/97
f 101/95/87 87/94/87 82/85/82 112/84/82
f 53/118/53 98/119/98 50/120/50
f 57/121/57 98/119/98 54/122/54
f 50/120/50 98/119/98 58/123/58
f 54/122/54 98/119/98 60/124/60
f 58/123/58 98/119/98 62/125/62
f 60/124/60 98/119/98 64/126/64
f 62/125/62 98/119/98 66/127/66
f 64/126/64 98/119/98 68/128/68
f 66/127/66 98/119/98 70/129/70
f 68/128/68 98/119/98 72/130/72
f 70/129/70 98/119/98 74/131/74
f 72/130/72 98/119/98 76/132/76
f 81/133/81 98/119/98 78/134/78
f 74/131/74 98/119/98 81/133/81
f 76/132/76 98/119/98 53/118/53
f 78/134/78 98/119/98 57/121/57
f 79/81/99 101/95/99 112/84/100 80/82/100
f 77/79/101 109/91/101 111/116/102 73/75/102
f 75/77/103 100/87/103 107/114/104 71/73/104
f 73/75/102 111/116/102 102/112/105 69/71/105
f 71/73/104 107/114/104 114/110/106 67/69/106
f 69/71/105 102/112/105 108/106/107 65/65/107
f 67/69/106 114/110/106 104/104/108 63/63/108
f 65/65/107 108/106/107 103/109/109 61/66/109
f 63/63/108 104/104/108 113/100/110 59/59/110
f 61/61/109 103/102/109 110/98/111 55/55/111
f 59/59/110 113/100/110 106/96/112 51/51/112
f 55/55/111 110/98/111 105/92/113 56/56/113
f 51/51/112 106/96/112 99/88/114 52/52/114
f 56/56/113 105/92/113 101/95/99 79/81/99
f 52/52/114 99/88/114 109/91/101 77/79/101
f 80/82/100 112/84/100 100/87/103 75/77/103
